HIERARCHY
ROOT Hips
{
	OFFSET 0.000000 0.000000 0.000000
	CHANNELS 6 Xposition Yposition Zposition Xrotation Yrotation Zrotation
	JOINT LeftUpLeg_virtual
	{
		OFFSET 0.000000 0.000000 0.000000
		CHANNELS 3 Xrotation Yrotation Zrotation
		JOINT LeftUpLeg
		{
			OFFSET 11.394100 -6.187798 -0.413800
			CHANNELS 3 Xrotation Yrotation Zrotation
			JOINT LeftLeg
			{
				OFFSET 0.430247 -32.302673 3.732800
				CHANNELS 3 Xrotation Yrotation Zrotation
				JOINT LeftFoot
				{
					OFFSET -0.430247 -48.264931 -6.423300
					CHANNELS 3 Xrotation Yrotation Zrotation
					JOINT LeftToeBase
					{
						OFFSET 4.230900 -16.068199 23.438400
						CHANNELS 3 Xrotation Yrotation Zrotation
						JOINT LeftToe_End
						{
							OFFSET 4.510700 0.695400 19.974600
							CHANNELS 3 Xrotation Yrotation Zrotation
							End Site
							{
								OFFSET 0 0 0
							}
						}
					}
				}
			}
		}
	}
	JOINT RightUpLeg_virtual
	{
		OFFSET 0.000000 0.000000 0.000000
		CHANNELS 3 Xrotation Yrotation Zrotation
		JOINT RightUpLeg
		{
			OFFSET -11.333700 -6.187798 -0.413800
			CHANNELS 3 Xrotation Yrotation Zrotation
			JOINT RightLeg
			{
				OFFSET -0.430392 -32.302628 3.733000
				CHANNELS 3 Xrotation Yrotation Zrotation
				JOINT RightFoot
				{
					OFFSET 0.430392 -48.264973 -6.423500
					CHANNELS 3 Xrotation Yrotation Zrotation
					JOINT RightToeBase
					{
						OFFSET -4.230900 -16.068199 23.438400
						CHANNELS 3 Xrotation Yrotation Zrotation
						JOINT RightToe_End
						{
							OFFSET -4.510700 0.695400 19.974600
							CHANNELS 3 Xrotation Yrotation Zrotation
							End Site
							{
								OFFSET 0 0 0
							}
						}
					}
				}
			}
		}
	}
	JOINT Spine_virtual
	{
		OFFSET 0.000000 0.000000 0.000000
		CHANNELS 3 Xrotation Yrotation Zrotation
		JOINT Spine
		{
			OFFSET -0.002400 12.777504 0.315300
			CHANNELS 3 Xrotation Yrotation Zrotation
			JOINT Spine1
			{
				OFFSET -0.002067 5.816869 0.032633
				CHANNELS 3 Xrotation Yrotation Zrotation
				JOINT Spine1_split
				{
					OFFSET -0.002067 5.816869 0.032633
					CHANNELS 3 Xrotation Yrotation Zrotation
					JOINT Spine2
					{
						OFFSET -0.002067 5.816869 0.032633
						CHANNELS 3 Xrotation Yrotation Zrotation
						JOINT Neck_virtual
						{
							OFFSET 0.000000 0.000000 0.000000
							CHANNELS 3 Xrotation Yrotation Zrotation
							JOINT Neck
							{
								OFFSET -0.003700 21.199493 -0.826900
								CHANNELS 3 Xrotation Yrotation Zrotation
								JOINT Head
								{
									OFFSET 0.000000 20.442200 4.834800
									CHANNELS 3 Xrotation Yrotation Zrotation
									JOINT HeadTop_End
									{
										OFFSET 0.000000 34.668396 4.968400
										CHANNELS 3 Xrotation Yrotation Zrotation
										End Site
										{
											OFFSET 0 0 0
										}
									}
								}
							}
						}
						JOINT LeftShoulder_virtual
						{
							OFFSET 0.000000 0.000000 0.000000
							CHANNELS 3 Xrotation Yrotation Zrotation
							JOINT LeftShoulder
							{
								OFFSET 3.288150 8.794197 -1.372250
								CHANNELS 3 Xrotation Yrotation Zrotation
								JOINT LeftShoulder_split
								{
									OFFSET 3.288150 8.794197 -1.372250
									CHANNELS 3 Xrotation Yrotation Zrotation
									JOINT LeftArm
									{
										OFFSET 11.953299 -2.279007 -0.146200
										CHANNELS 3 Xrotation Yrotation Zrotation
										JOINT LeftForeArm
										{
											OFFSET 18.448900 0.000000 0.000000
											CHANNELS 3 Xrotation Yrotation Zrotation
											JOINT LeftHand
											{
												OFFSET 29.527798 0.000000 0.000000
												CHANNELS 3 Xrotation Yrotation Zrotation
												End Site
												{
													OFFSET 0 0 0
												}
											}
										}
									}
								}
							}
						}
						JOINT RightShoulder_virtual
						{
							OFFSET 0.000000 0.000000 0.000000
							CHANNELS 3 Xrotation Yrotation Zrotation
							JOINT RightShoulder
							{
								OFFSET -3.249400 8.794197 -1.372250
								CHANNELS 3 Xrotation Yrotation Zrotation
								JOINT RightShoulder_split
								{
									OFFSET -3.249400 8.794197 -1.372250
									CHANNELS 3 Xrotation Yrotation Zrotation
									JOINT RightArm
									{
										OFFSET -11.953299 -2.279007 -0.146200
										CHANNELS 3 Xrotation Yrotation Zrotation
										JOINT RightForeArm
										{
											OFFSET -18.448900 0.000000 0.000000
											CHANNELS 3 Xrotation Yrotation Zrotation
											JOINT RightHand
											{
												OFFSET -29.527802 0.000000 0.000000
												CHANNELS 3 Xrotation Yrotation Zrotation
												End Site
												{
													OFFSET 0 0 0
												}
											}
										}
									}
								}
							}
						}
					}
				}
			}
		}
	}
}
MOTION
Frames: 11
Frame Time: 0.03333333
9.688349 70.235901 52.841995 0.000000 0.000000 0.000000 -11.782992 -37.458400 -7.740819 -66.400804 -13.627501 20.985655 67.602405 -6.611032 7.190125 11.655951 1.679722 -27.822105 -4.382105 -4.275088 3.657870 0.000000 0.000000 0.000000 -12.310339 -36.470953 -8.023568 -35.823430 -11.872731 -34.180910 75.929519 21.897902 -15.264803 3.603218 -28.056535 31.623363 -14.771727 19.779726 -27.831289 0.000000 0.000000 0.000000 -9.850865 -35.601736 -8.383238 17.081933 7.321379 -8.221374 3.386137 -0.943898 1.362483 0.237403 -1.266869 0.165840 0.000000 0.000000 0.000000 10.461253 0.601076 2.778690 4.325979 16.871037 5.699679 0.672959 7.535611 -31.144768 0.000000 0.000000 0.000000 7.101903 -1.117372 1.711190 0.320208 -3.774486 -5.383740 7.148861 -4.554717 2.058062 -67.718880 13.222751 -35.692912 173.530750 -64.445382 168.196086 0.000000 0.000000 0.000000 6.042647 -1.904710 1.379059 -1.697426 8.470518 -9.359892 -13.594119 -3.130108 -5.164858 -40.481517 21.319087 86.508635 -141.409532 70.200780 142.344776 0.000000 0.000000 0.000000 
9.060211 71.627213 49.784786 0.000000 0.000000 0.000000 -11.391051 -37.863833 -6.725715 -65.125143 -11.891285 20.771022 62.000264 -5.972329 8.286880 15.191543 1.500613 -30.279741 -4.722990 -4.782473 4.147834 0.000000 0.000000 0.000000 -13.162960 -37.270375 -7.395072 -30.047836 -13.614702 -31.579079 74.838096 21.449427 -16.392551 -7.764622 -29.266008 33.737176 -6.703216 18.258330 -33.835459 0.000000 0.000000 0.000000 -10.818273 -37.124312 -8.065856 14.896139 8.309875 -7.320840 3.514274 -0.825653 0.861121 0.091708 -1.073720 0.157597 0.000000 0.000000 0.000000 10.456839 0.647146 2.247522 4.918531 16.223624 5.134587 0.468589 5.085695 -31.248430 0.000000 0.000000 0.000000 7.289699 -0.995568 1.111516 -0.061523 -0.898379 -5.267461 7.883170 -5.871949 3.325201 -66.761752 14.753350 -37.877668 170.637824 -65.684427 164.549038 0.000000 0.000000 0.000000 6.281997 -1.868447 0.835794 -2.143148 8.790195 -9.166186 -13.948833 -2.580714 -5.980043 -41.242813 21.477634 87.384641 -137.125883 70.899044 138.180929 0.000000 0.000000 0.000000 
8.298985 73.413551 46.587379 0.000000 0.000000 0.000000 -10.013605 -37.431219 -4.989302 -65.117241 -9.611358 20.925408 56.317536 -5.925366 8.983275 19.032479 0.555304 -32.164549 -3.916273 -5.123628 4.553854 0.000000 0.000000 0.000000 -12.176527 -36.954018 -5.740410 -25.523780 -14.687000 -28.925715 72.631897 20.456480 -16.563111 -17.671072 -31.577225 32.901499 3.413991 14.719456 -35.385649 0.000000 0.000000 0.000000 -10.817301 -37.751466 -7.240441 12.971737 8.848611 -6.683393 3.587705 -0.771138 0.408085 -0.009423 -0.700240 0.159872 0.000000 0.000000 0.000000 10.200590 0.669405 1.654650 5.447627 15.421946 4.678409 0.492175 2.734424 -31.572819 0.000000 0.000000 0.000000 7.377522 -0.912420 0.640601 -0.415502 1.635358 -4.685601 8.932513 -6.914107 4.019301 -66.540604 15.045865 -40.245408 168.659473 -67.109914 162.064584 0.000000 0.000000 0.000000 6.392187 -1.810530 0.388057 -2.724341 8.825970 -9.592047 -13.199863 -1.161371 -5.698467 -41.828297 20.854550 88.286199 -136.216539 70.834485 136.723653 0.000000 0.000000 0.000000 
7.564341 75.278229 43.446709 0.000000 0.000000 0.000000 -8.104888 -37.054029 -3.068153 -64.940530 -6.398520 21.400118 51.589566 -6.093212 9.021655 21.023667 -0.137632 -32.287940 -3.596661 -5.511050 5.454762 0.000000 0.000000 0.000000 -9.504440 -36.271156 -3.589617 -22.082493 -15.532719 -26.036116 69.277140 18.909449 -15.678650 -25.322716 -33.755485 29.282828 7.123501 13.035646 -34.654734 0.000000 0.000000 0.000000 -9.971075 -37.890386 -6.021227 11.591085 8.874905 -6.447372 3.603691 -0.799746 0.080159 0.011559 -0.362291 0.156870 0.000000 0.000000 0.000000 9.776835 0.685766 1.163642 5.772695 14.556219 4.331833 0.214103 0.778671 -32.252607 0.000000 0.000000 0.000000 7.312914 -0.878485 0.377488 -0.755192 3.521884 -3.734391 9.968968 -7.365497 4.030920 -67.311145 14.571502 -42.303917 167.191966 -68.835528 160.407949 0.000000 0.000000 0.000000 6.265011 -1.737838 0.146230 -3.397529 8.673324 -10.516161 -11.438450 0.249925 -4.351531 -42.678550 19.589997 88.983322 -139.106816 70.228968 138.509543 0.000000 0.000000 0.000000 
7.025199 77.127243 40.145153 0.000000 0.000000 0.000000 -6.013786 -37.505675 -1.250206 -63.611580 -2.395448 21.940060 48.556068 -6.265565 8.330782 18.768735 0.237980 -30.014928 -4.802700 -6.023388 6.979281 0.000000 0.000000 0.000000 -6.757584 -36.530474 -1.894861 -21.115586 -16.339542 -23.486019 65.682193 17.034634 -14.068071 -28.055195 -34.792144 26.330504 5.624904 13.036138 -33.393331 0.000000 0.000000 0.000000 -8.336333 -37.734302 -4.559979 10.807830 8.449186 -6.575622 3.481007 -0.888713 -0.060655 0.090102 -0.138869 0.136338 0.000000 0.000000 0.000000 9.211635 0.696665 0.943000 5.790076 13.793684 4.040186 -0.533656 -0.399562 -33.360884 0.000000 0.000000 0.000000 7.038023 -0.874766 0.379523 -1.084172 4.652427 -2.517424 10.480018 -7.458703 2.920215 -69.046615 13.767080 -43.953275 165.294908 -70.837121 158.603140 0.000000 0.000000 0.000000 5.945887 -1.685487 0.155886 -4.091655 8.504094 -11.488429 -9.546920 1.112323 -2.830100 -43.862478 17.946664 89.504329 -144.241711 69.514537 142.206068 0.000000 0.000000 0.000000 
6.808969 78.969597 36.573326 0.000000 0.000000 0.000000 -4.002009 -38.755211 0.267764 -61.928820 1.641094 22.390540 48.860612 -6.883707 7.300305 13.256627 0.504658 -26.549575 -6.618342 -6.438891 8.304712 0.000000 0.000000 0.000000 -4.435746 -37.904777 -0.814043 -23.445975 -17.105466 -21.820701 62.922223 15.265365 -12.234713 -25.356345 -34.202749 26.277331 2.873633 13.349373 -32.037986 0.000000 0.000000 0.000000 -5.947112 -37.582884 -3.118718 10.444676 7.700473 -6.870186 3.162109 -0.995730 0.004161 0.190447 -0.035714 0.123464 0.000000 0.000000 0.000000 8.532485 0.699742 1.032058 5.581734 13.265964 3.758312 -1.801350 -0.732593 -34.812217 0.000000 0.000000 0.000000 6.554258 -0.882660 0.609355 -1.376460 5.177324 -1.291014 10.221091 -7.299438 1.099340 -71.331531 13.090692 -45.290988 161.873817 -72.896601 155.491797 0.000000 0.000000 0.000000 5.472001 -1.647763 0.409595 -4.716306 8.372326 -12.282702 -7.971107 1.215844 -1.798835 -45.256290 16.581722 89.953072 -149.676492 69.122867 146.083690 0.000000 0.000000 0.000000 
6.687770 80.805458 32.703819 0.000000 0.000000 0.000000 -1.843866 -40.185896 1.286730 -60.235684 4.926451 22.603169 52.770065 -7.839288 6.175389 7.390930 -0.160985 -22.895629 -7.333740 -6.530449 8.410502 0.000000 0.000000 0.000000 -2.338357 -39.821506 -0.030145 -27.968265 -17.776250 -21.121978 61.283394 14.228611 -10.613249 -20.725425 -31.416025 27.885639 1.381608 13.168977 -30.952600 0.000000 0.000000 0.000000 -2.865929 -37.645899 -1.832738 10.236189 6.780681 -7.076474 2.581490 -1.094359 0.225616 0.261166 -0.054957 0.116352 0.000000 0.000000 0.000000 7.760931 0.691215 1.380532 5.391905 13.055512 3.374455 -3.226299 -0.332550 -36.398816 0.000000 0.000000 0.000000 5.895266 -0.891247 0.973221 -1.617172 5.425856 -0.228162 9.552496 -7.214225 -0.617237 -73.580651 12.795435 -46.380994 156.657533 -74.524577 150.674492 0.000000 0.000000 0.000000 4.836591 -1.633760 0.825954 -5.121631 8.328873 -12.717174 -6.545237 0.540049 -1.307818 -46.856904 15.771429 90.451567 -154.523700 69.112799 149.479141 0.000000 0.000000 0.000000 
6.502749 82.627151 28.564125 0.000000 0.000000 0.000000 0.454163 -41.680649 1.808426 -57.924662 6.759159 22.226180 58.402598 -9.236339 5.475042 3.332182 -1.687832 -20.325900 -8.423502 -6.316016 7.423739 0.000000 0.000000 0.000000 -0.102264 -41.680772 0.728768 -32.654841 -18.141792 -20.820087 60.025430 14.135632 -9.339575 -17.613350 -26.785007 28.767934 1.927942 12.379682 -30.278768 0.000000 0.000000 0.000000 0.281138 -38.177902 -0.959310 9.903575 5.902951 -6.959735 1.755515 -1.183220 0.501656 0.270512 -0.095106 0.129316 0.000000 0.000000 0.000000 6.882412 0.659660 1.847614 5.360415 13.201519 2.875404 -4.218274 0.761095 -37.847905 0.000000 0.000000 0.000000 5.083119 -0.895670 1.364928 -1.809016 5.679640 0.667070 8.609752 -7.366742 -1.947729 -75.583106 12.694474 -47.298623 150.323926 -75.410288 144.687012 0.000000 0.000000 0.000000 4.115647 -1.655178 1.236554 -5.248637 8.386928 -12.859462 -5.624271 -0.555078 -1.195391 -48.550556 15.755751 91.080538 -158.487518 69.259020 152.289832 0.000000 0.000000 0.000000 
6.295852 84.339645 24.504795 0.000000 0.000000 0.000000 2.508391 -43.203361 1.849532 -53.502074 7.301955 20.815454 62.142659 -10.305676 5.158335 -0.060234 -2.583731 -18.348349 -12.109838 -5.968505 5.926722 0.000000 0.000000 0.000000 1.815674 -43.707490 1.115031 -36.236049 -18.389282 -20.447109 58.521047 14.158455 -8.257869 -16.129939 -21.823245 27.820402 2.855846 11.672150 -29.734023 0.000000 0.000000 0.000000 2.987934 -39.243890 -0.530413 9.339575 5.238792 -6.459169 0.798641 -1.269780 0.717917 0.254162 -0.127426 0.154638 0.000000 0.000000 0.000000 5.976271 0.595172 2.282283 5.526403 13.646096 2.299765 -4.416990 2.168929 -38.871829 0.000000 0.000000 0.000000 4.235347 -0.904614 1.664388 -1.923516 6.198768 1.354884 7.816688 -7.611616 -2.275839 -77.097727 12.648295 -47.974460 144.327648 -75.719177 138.940145 0.000000 0.000000 0.000000 3.333286 -1.724595 1.528078 -5.097135 8.501701 -12.874490 -5.004421 -1.698130 -1.169967 -50.251392 16.572289 91.730506 -160.975374 69.457539 154.066870 0.000000 0.000000 0.000000 
5.988360 85.903915 20.711452 0.000000 0.000000 0.000000 3.979887 -44.566332 1.546242 -46.401908 7.500280 18.784523 61.951312 -9.835986 4.300549 -5.711030 -1.269914 -14.864981 -15.687923 -5.132278 3.394263 0.000000 0.000000 0.000000 2.714982 -46.230228 0.836044 -38.604817 -18.855118 -20.087284 56.722471 13.483839 -7.142209 -14.047528 -18.237058 26.159015 1.978082 11.542158 -28.701056 0.000000 0.000000 0.000000 4.885824 -40.481872 -0.371836 8.670863 4.862784 -5.727429 -0.158202 -1.375705 0.811164 0.205252 -0.102094 0.146857 0.000000 0.000000 0.000000 5.097984 0.486453 2.585048 5.782672 14.294077 1.703379 -3.661883 3.824362 -39.300256 0.000000 0.000000 0.000000 3.459548 -0.942655 1.826637 -1.954083 7.046800 1.824462 7.295011 -8.158646 -1.809980 -78.201404 12.305007 -48.396805 139.309768 -75.933187 134.032463 0.000000 0.000000 0.000000 2.580038 -1.855476 1.646429 -4.768361 8.655358 -12.770474 -4.438931 -2.739203 -0.970361 -51.744301 17.870177 92.295943 -161.887764 69.831164 154.751856 0.000000 0.000000 0.000000 
5.606854 87.002831 17.227375 0.000000 0.000000 0.000000 4.591554 -45.943964 0.991351 -38.747134 7.466516 16.848924 59.354904 -8.298541 3.117107 -12.905041 1.460286 -10.866944 -14.888641 -3.583326 -0.381904 0.000000 0.000000 0.000000 2.753434 -48.340152 0.211247 -39.617020 -19.248481 -19.911287 55.014797 12.638007 -6.294932 -11.139824 -16.728001 24.853889 -0.634976 11.583679 -26.512096 0.000000 0.000000 0.000000 5.691752 -41.841315 -0.451176 8.160315 4.821655 -5.032772 -0.949781 -1.509827 0.781301 0.160039 -0.086629 0.155246 0.000000 0.000000 0.000000 4.320744 0.340082 2.726881 5.995199 15.026896 1.163942 -2.298314 5.670517 -39.073036 0.000000 0.000000 0.000000 2.889552 -1.019102 1.854960 -1.899888 8.049270 2.140922 7.048472 -8.784180 -1.054719 -79.127161 11.453421 -48.610531 134.781434 -76.470757 129.531054 0.000000 0.000000 0.000000 1.930472 -2.029425 1.615176 -4.451265 8.811624 -12.525779 -4.388582 -3.432646 -0.603100 -52.823993 19.287233 92.658981 -161.610376 70.356918 154.691545 0.000000 0.000000 0.000000 
